<svg width="28" height="27" viewBox="0 0 28 27" fill="none" xmlns="http://www.w3.org/2000/svg">
<path d="M14 0.0825195C17.6226 0.0825195 18.0746 0.0958528 19.496 0.162519C20.916 0.229186 21.8826 0.451853 22.7333 0.78252C23.6133 1.12119 24.3546 1.57985 25.096 2.31985C25.774 2.98638 26.2986 3.79264 26.6333 4.68252C26.9626 5.53185 27.1866 6.49985 27.2533 7.91985C27.316 9.34119 27.3333 9.79319 27.3333 13.4159C27.3333 17.0385 27.32 17.4905 27.2533 18.9119C27.1866 20.3319 26.9626 21.2985 26.6333 22.1492C26.2995 23.0396 25.7748 23.846 25.096 24.5119C24.4292 25.1896 23.623 25.7142 22.7333 26.0492C21.884 26.3785 20.916 26.6025 19.496 26.6692C18.0746 26.7319 17.6226 26.7492 14 26.7492C10.3773 26.7492 9.92529 26.7359 8.50396 26.6692C7.08396 26.6025 6.11729 26.3785 5.26663 26.0492C4.37639 25.7152 3.57 25.1904 2.90396 24.5119C2.22583 23.8454 1.7012 23.0391 1.36663 22.1492C1.03596 21.2999 0.813293 20.3319 0.746626 18.9119C0.683959 17.4905 0.666626 17.0385 0.666626 13.4159C0.666626 9.79319 0.679959 9.34119 0.746626 7.91985C0.813293 6.49852 1.03596 5.53319 1.36663 4.68252C1.70027 3.79209 2.22503 2.98561 2.90396 2.31985C3.57019 1.64149 4.37653 1.11683 5.26663 0.78252C6.11729 0.451853 7.08263 0.229186 8.50396 0.162519C9.92529 0.0998528 10.3773 0.0825195 14 0.0825195ZM14 6.74919C12.2318 6.74919 10.5362 7.45157 9.28591 8.70181C8.03567 9.95205 7.33329 11.6477 7.33329 13.4159C7.33329 15.184 8.03567 16.8797 9.28591 18.1299C10.5362 19.3801 12.2318 20.0825 14 20.0825C15.7681 20.0825 17.4638 19.3801 18.714 18.1299C19.9642 16.8797 20.6666 15.184 20.6666 13.4159C20.6666 11.6477 19.9642 9.95205 18.714 8.70181C17.4638 7.45157 15.7681 6.74919 14 6.74919ZM22.6666 6.41585C22.6666 5.97383 22.491 5.5499 22.1785 5.23734C21.8659 4.92478 21.442 4.74919 21 4.74919C20.5579 4.74919 20.134 4.92478 19.8214 5.23734C19.5089 5.5499 19.3333 5.97383 19.3333 6.41585C19.3333 6.85788 19.5089 7.2818 19.8214 7.59436C20.134 7.90693 20.5579 8.08252 21 8.08252C21.442 8.08252 21.8659 7.90693 22.1785 7.59436C22.491 7.2818 22.6666 6.85788 22.6666 6.41585ZM14 9.41585C15.0608 9.41585 16.0782 9.83728 16.8284 10.5874C17.5785 11.3376 18 12.355 18 13.4159C18 14.4767 17.5785 15.4941 16.8284 16.2443C16.0782 16.9944 15.0608 17.4159 14 17.4159C12.9391 17.4159 11.9217 16.9944 11.1715 16.2443C10.4214 15.4941 9.99996 14.4767 9.99996 13.4159C9.99996 12.355 10.4214 11.3376 11.1715 10.5874C11.9217 9.83728 12.9391 9.41585 14 9.41585Z" fill="#5243C2"/>
</svg>
