<svg width="28" height="23" viewBox="0 0 28 23" fill="none" xmlns="http://www.w3.org/2000/svg">
<path d="M27.5493 2.95725C26.5314 3.40751 25.4519 3.70322 24.3466 3.83458C25.5116 3.13783 26.3836 2.04127 26.7999 0.749251C25.7066 1.39992 24.5079 1.85592 23.2586 2.10258C22.4194 1.20469 21.3071 0.609202 20.0946 0.408697C18.882 0.208193 17.6372 0.413906 16.5536 0.993855C15.4701 1.5738 14.6085 2.4955 14.1028 3.61564C13.5971 4.73579 13.4756 5.99162 13.7573 7.18792C11.5401 7.07679 9.37106 6.50062 7.391 5.4968C5.41094 4.49299 3.66412 3.08398 2.26395 1.36125C1.76833 2.21252 1.50789 3.18022 1.50928 4.16525C1.50928 6.09858 2.49328 7.80658 3.98928 8.80659C3.10396 8.77871 2.23812 8.53963 1.46395 8.10925V8.17858C1.46422 9.46618 1.90977 10.7141 2.72508 11.7107C3.54038 12.7073 4.67526 13.3912 5.93728 13.6466C5.11543 13.8693 4.25369 13.9021 3.41728 13.7426C3.7731 14.8509 4.46662 15.8202 5.40074 16.5147C6.33485 17.2093 7.46279 17.5943 8.62661 17.6159C7.46992 18.5244 6.14552 19.1959 4.72912 19.5921C3.31273 19.9884 1.83212 20.1016 0.371948 19.9253C2.92088 21.5645 5.88808 22.4347 8.91861 22.4319C19.1759 22.4319 24.7853 13.9346 24.7853 6.56525C24.7853 6.32525 24.7786 6.08258 24.7679 5.84525C25.8598 5.05614 26.8021 4.07861 27.5506 2.95858L27.5493 2.95725Z" fill="#5243C2"/>
</svg>
