<svg width="16" height="16" viewBox="0 0 16 16" fill="none" xmlns="http://www.w3.org/2000/svg">
<g clip-path="url(#clip0_78_500)">
<path d="M2.66663 14.6665C2.66663 13.252 3.22853 11.8955 4.22872 10.8953C5.22892 9.89507 6.58547 9.33317 7.99996 9.33317C9.41445 9.33317 10.771 9.89507 11.7712 10.8953C12.7714 11.8955 13.3333 13.252 13.3333 14.6665H12C12 13.6056 11.5785 12.5882 10.8284 11.8381C10.0782 11.0879 9.06082 10.6665 7.99996 10.6665C6.93909 10.6665 5.92168 11.0879 5.17153 11.8381C4.42139 12.5882 3.99996 13.6056 3.99996 14.6665H2.66663ZM7.99996 8.6665C5.78996 8.6665 3.99996 6.8765 3.99996 4.6665C3.99996 2.4565 5.78996 0.666504 7.99996 0.666504C10.21 0.666504 12 2.4565 12 4.6665C12 6.8765 10.21 8.6665 7.99996 8.6665ZM7.99996 7.33317C9.47329 7.33317 10.6666 6.13984 10.6666 4.6665C10.6666 3.19317 9.47329 1.99984 7.99996 1.99984C6.52663 1.99984 5.33329 3.19317 5.33329 4.6665C5.33329 6.13984 6.52663 7.33317 7.99996 7.33317Z" fill="#878787"/>
</g>
<defs>
<clipPath id="clip0_78_500">
<rect width="16" height="16" fill="white"/>
</clipPath>
</defs>
</svg>
