<svg width="16" height="16" viewBox="0 0 16 16" fill="none" xmlns="http://www.w3.org/2000/svg">
<g clip-path="url(#clip0_78_506)">
<path d="M4.86071 13.8828L1.33338 14.6668L2.11738 11.1395C1.60107 10.1738 1.33173 9.09526 1.33338 8.00016C1.33338 4.31816 4.31805 1.3335 8.00005 1.3335C11.682 1.3335 14.6667 4.31816 14.6667 8.00016C14.6667 11.6822 11.682 14.6668 8.00005 14.6668C6.90495 14.6685 5.82646 14.3991 4.86071 13.8828ZM5.05405 12.4742L5.48938 12.7075C6.26175 13.1203 7.12431 13.3353 8.00005 13.3335C9.05488 13.3335 10.086 13.0207 10.9631 12.4347C11.8402 11.8486 12.5237 11.0157 12.9274 10.0411C13.3311 9.0666 13.4367 7.99425 13.2309 6.95968C13.0251 5.92512 12.5172 4.97481 11.7713 4.22893C11.0254 3.48305 10.0751 2.9751 9.04053 2.76931C8.00596 2.56352 6.93361 2.66914 5.95907 3.07281C4.98453 3.47647 4.15158 4.16006 3.56554 5.03712C2.97951 5.91418 2.66671 6.94533 2.66671 8.00016C2.66671 8.8895 2.88338 9.7455 3.29338 10.5108L3.52605 10.9462L3.08938 12.9108L5.05405 12.4742Z" fill="#878787"/>
</g>
<defs>
<clipPath id="clip0_78_506">
<rect width="16" height="16" fill="white"/>
</clipPath>
</defs>
</svg>
