<svg width="16" height="16" viewBox="0 0 16 16" fill="none" xmlns="http://www.w3.org/2000/svg">
<g clip-path="url(#clip0_78_494)">
<path d="M11.3334 2.66683H14C14.1769 2.66683 14.3464 2.73707 14.4714 2.86209C14.5965 2.98712 14.6667 3.15669 14.6667 3.3335V14.0002C14.6667 14.177 14.5965 14.3465 14.4714 14.4716C14.3464 14.5966 14.1769 14.6668 14 14.6668H2.00004C1.82323 14.6668 1.65366 14.5966 1.52864 14.4716C1.40361 14.3465 1.33337 14.177 1.33337 14.0002V3.3335C1.33337 3.15669 1.40361 2.98712 1.52864 2.86209C1.65366 2.73707 1.82323 2.66683 2.00004 2.66683H4.66671V1.3335H6.00004V2.66683H10V1.3335H11.3334V2.66683ZM13.3334 8.00016H2.66671V13.3335H13.3334V8.00016ZM10 4.00016H6.00004V5.3335H4.66671V4.00016H2.66671V6.66683H13.3334V4.00016H11.3334V5.3335H10V4.00016ZM4.00004 9.3335H5.33337V10.6668H4.00004V9.3335ZM7.33337 9.3335H8.66671V10.6668H7.33337V9.3335ZM10.6667 9.3335H12V10.6668H10.6667V9.3335Z" fill="#878787"/>
</g>
<defs>
<clipPath id="clip0_78_494">
<rect width="16" height="16" fill="white"/>
</clipPath>
</defs>
</svg>
